<?xml version="1.0" encoding="UTF-8"?><svg id="_レイヤー_1" xmlns="http://www.w3.org/2000/svg" viewBox="0 0 482.8 82.29"><defs><style>.cls-1{fill:#002a76;}.cls-2{fill:#daad00;}.cls-3{fill:#494949;}</style></defs><path class="cls-1" d="m90.84,0v50.37c0,8.67-3.16,16.23-9.38,22.49-6.23,6.26-13.81,9.43-22.54,9.43h-24.8v-1.31c-2.78.87-5.89,1.31-9.31,1.31H0V0h22.61v68.15h5.75c1.64,0,2.93-.54,4.07-1.69,1.15-1.16,1.69-2.42,1.69-3.98V0h22.61v68.15h5.75c1.58,0,2.84-.54,3.99-1.69,1.15-1.16,1.68-2.42,1.68-3.98V0h22.69Z"/><path class="cls-3" d="m153.17,22.9c-3.87-3.9-8.58-5.88-13.99-5.88h-17.1c-5.38,0-10.07,1.96-13.96,5.83-3.88,3.87-5.85,8.6-5.85,14.06v25.57c0,5.4,1.96,10.11,5.83,13.98s8.57,5.83,13.98,5.83h17.1c5.41,0,10.12-1.98,13.99-5.88,3.86-3.9,5.82-8.58,5.82-13.93v-25.57c0-5.4-1.96-10.12-5.82-14.01Zm-28.29,39.58v-25.57c0-1.61.54-2.9,1.69-4.05s2.45-1.7,4.06-1.7,2.87.54,4.04,1.7,1.71,2.45,1.71,4.05v25.57c0,1.56-.53,2.82-1.68,3.98-1.15,1.15-2.44,1.69-4.07,1.69s-2.92-.54-4.07-1.69c-1.15-1.16-1.68-2.42-1.68-3.98Z"/><path class="cls-3" d="m218.59,17.02v22.69h-19.81c-1.62,0-2.91.53-4.06,1.68-1.16,1.15-1.7,2.41-1.7,3.99v36.91h-22.61V17.02h22.61v5.61c.17-.18.33-.35.5-.52,3.38-3.38,8.03-5.09,13.81-5.09h11.26Z"/><g><path class="cls-3" d="m289.7,17.02v1.69l2.02-1.69h-2.02Zm0,63.57v1.7h2.04l-2.04-1.7Z"/><polygon class="cls-3" points="289.7 18.71 252.67 49.69 289.7 80.59 289.7 82.29 265.91 82.29 244.16 64.14 244.16 82.29 221.55 82.29 221.55 0 244.16 0 244.16 35.17 265.91 17.02 289.7 17.02 289.7 18.71"/></g><g><path class="cls-1" d="m289.7,80.59v1.7h2.04l-2.04-1.7Zm0-63.57v1.69l2.02-1.69h-2.02Z"/><path class="cls-1" d="m380.54,0v50.37c0,8.67-3.16,16.23-9.39,22.49-6.23,6.26-13.81,9.43-22.53,9.43h-24.81v-1.31c-2.77.87-5.89,1.31-9.31,1.31h-22.76l-2.04-1.7V18.71l2.02-1.69h-2.02V0h22.61v68.15h5.75c1.63,0,2.92-.54,4.06-1.69,1.16-1.16,1.69-2.42,1.69-3.98V0h22.61v68.15h5.75c1.58,0,2.85-.54,3.99-1.69,1.15-1.16,1.69-2.42,1.69-3.98V0h22.69Z"/></g><g><rect class="cls-3" x="391.96" width="22.61" height="14.14"/><rect class="cls-3" x="391.96" y="17.02" width="22.61" height="65.27"/></g><polygon class="cls-2" points="482.8 29.34 451.71 68.15 482.8 68.15 482.8 82.29 426.08 82.29 426.08 69.96 457.16 31.16 426.08 31.16 426.08 17.02 482.8 17.02 482.8 29.34"/></svg>