<?xml version="1.0" encoding="UTF-8"?><svg id="_レイヤー_1" xmlns="http://www.w3.org/2000/svg" viewBox="0 0 512 82.29"><defs><style>.cls-1{fill:#d4b02d;}.cls-2{fill:#0c2971;}.cls-3{fill:#494949;}</style></defs><path class="cls-2" d="m0,0h18.26v73.12h9.17c2.54,0,4.71-.9,6.49-2.7s2.68-3.93,2.68-6.39V0h18.26v73.12h9.17c2.49,0,4.62-.9,6.41-2.7s2.68-3.93,2.68-6.39V0h18.34v51.05c0,8.51-3.06,15.85-9.19,22.01s-13.48,9.24-22.05,9.24h-23.62v-2.91c-3.51,1.94-7.84,2.91-12.99,2.91H0V0Z"/><path class="cls-3" d="m127.98,18.26h18.34c5,0,9.29,1.81,12.88,5.42s5.38,7.92,5.38,12.92v27.43c0,4.94-1.79,9.22-5.38,12.84s-7.88,5.42-12.88,5.42h-18.34c-5,0-9.29-1.79-12.88-5.38s-5.38-7.88-5.38-12.88v-27.43c0-5.06,1.8-9.38,5.4-12.97s7.89-5.38,12.86-5.38Zm0,18.34v27.43c0,2.46.89,4.59,2.68,6.39s3.95,2.7,6.49,2.7,4.71-.9,6.49-2.7,2.68-3.93,2.68-6.39v-27.43c0-2.51-.91-4.67-2.72-6.47s-3.96-2.7-6.45-2.7-4.67.9-6.47,2.7-2.7,3.96-2.7,6.47Z"/><path class="cls-3" d="m201.1,82.29h-18.26V18.26h18.26v18.34c.71-6.11,2.6-10.7,5.66-13.76s7.29-4.59,12.69-4.59h9.09v18.34h-18.26c-2.51,0-4.67.89-6.47,2.68s-2.7,3.92-2.7,6.41v36.6Z"/><path class="cls-3" d="m237.7,82.29V0h18.26v41.15l27.43-22.89h18.34l-38.32,32.06,38.32,31.97h-18.34l-27.43-22.89v22.89h-18.26Z"/><path class="cls-2" d="m310.82,0h18.26v73.12h9.17c2.54,0,4.71-.9,6.49-2.7s2.68-3.93,2.68-6.39V0h18.26v73.12h9.17c2.49,0,4.62-.9,6.41-2.7s2.68-3.93,2.68-6.39V0h18.34v51.05c0,8.51-3.06,15.85-9.19,22.01s-13.48,9.24-22.05,9.24h-23.62v-2.91c-3.51,1.94-7.84,2.91-12.99,2.91h-23.62V0Z"/><path class="cls-3" d="m420.54,9.17V0h18.26v9.17h-18.26Zm0,73.12V18.26h18.26v64.03h-18.26Z"/><path class="cls-1" d="m457.14,18.26h54.86v9.17l-36.6,45.69h36.6v9.17h-54.86v-9.17l36.6-45.69h-36.6v-9.17Z"/></svg>